<?xml version="1.0" encoding="UTF-8" standalone="no"?>
<!-- Created with Inkscape (http://www.inkscape.org/) -->

<svg
   width="1920"
   height="1080"
   viewBox="0 0 1920 1080"
   version="1.1"
   id="svg1"
   xml:space="preserve"
   xmlns="http://www.w3.org/2000/svg"
   xmlns:svg="http://www.w3.org/2000/svg"><defs
     id="defs1"><style
       id="style1">.cls-1{fill:#7030b0;}</style><style
       type="text/css"
       id="style1-6">
   
    .fil0 {fill:black;fill-rule:nonzero}
   
  </style><clipPath
       clipPathUnits="userSpaceOnUse"
       id="clipPath11"><rect
         style="fill:none;fill-opacity:1;stroke:#6d0d3d;stroke-width:2.16318;stroke-dasharray:none;stroke-opacity:1"
         id="rect11"
         width="84.954185"
         height="59.050785"
         x="7.1419792"
         y="17.723822" /></clipPath><style
       id="style1-7">.cls-1{fill:#7030b0;}</style><style
       type="text/css"
       id="style1-6-1">
   
    .fil0 {fill:black;fill-rule:nonzero}
   
  </style></defs><g
     id="layer1"><g
       id="g17"><g
         id="g2"
         transform="matrix(1.018996,0,0,1.0215196,166.56498,79.832939)"
         clip-path="url(#clipPath11)"
         style="fill:#6d0d3d;fill-opacity:1"><g
           id="g4"
           style="fill:#6d0d3d;fill-opacity:1"><path
             d="m 56.809,68.012 c 0,3.8594 -3.1289,6.9883 -6.9844,6.9883 -3.8594,0 -6.9883,-3.1289 -6.9883,-6.9883 0,-3.8555 3.1289,-6.9844 6.9883,-6.9844 3.8555,0 6.9844,3.1289 6.9844,6.9844 z"
             id="path1"
             style="fill:#6d0d3d;fill-opacity:1" /><path
             d="m 49.824,51.945 c -5.918,0 -11.023,3.5039 -13.344,8.5586 -0.48438,1.0508 -1.7266,1.5156 -2.7773,1.0312 -1.0547,-0.48438 -1.5156,-1.7266 -1.0312,-2.7773 2.9766,-6.4922 9.5352,-11.004 17.152,-11.004 7.6133,0 14.172,4.5117 17.148,11.004 0.48438,1.0508 0.02344,2.293 -1.0273,2.7773 -1.0547,0.48438 -2.2969,0.01953 -2.7812,-1.0312 -2.3203,-5.0547 -7.4219,-8.5586 -13.34,-8.5586 z"
             fill-rule="evenodd"
             id="path2"
             style="fill:#6d0d3d;fill-opacity:1" /><path
             d="m 49.824,40.766 c -10.953,0 -20.375,6.3867 -24.648,15.559 -0.49219,1.0508 -1.7383,1.5039 -2.7852,1.0156 -1.0508,-0.49219 -1.5039,-1.7383 -1.0156,-2.7852 4.9492,-10.621 15.832,-17.98 28.449,-17.98 12.613,0 23.496,7.3594 28.445,17.98 0.48828,1.0469 0.03516,2.293 -1.0117,2.7852 -1.0508,0.48828 -2.2969,0.03516 -2.7852,-1.0156 C 70.195,47.1531 60.7733,40.766 49.8243,40.766 Z"
             fill-rule="evenodd"
             id="path3"
             style="fill:#6d0d3d;fill-opacity:1" /><path
             d="m 49.824,28.191 c -15.918,0 -29.613,9.2539 -35.828,22.547 -0.49219,1.0469 -1.7383,1.5 -2.7891,1.0078 -1.0469,-0.48828 -1.5,-1.7344 -1.0078,-2.7852 6.8945,-14.742 22.051,-24.961 39.625,-24.961 17.57,0 32.73,10.219 39.621,24.961 0.49219,1.0508 0.03906,2.2969 -1.0078,2.7852 -1.0508,0.49219 -2.2969,0.03906 -2.7891,-1.0078 -6.2148,-13.293 -19.91,-22.547 -35.824,-22.547 z"
             fill-rule="evenodd"
             id="path4"
             style="fill:#6d0d3d;fill-opacity:1" /></g><text
           x="0"
           y="117.5"
           font-size="5px"
           font-weight="bold"
           font-family="'Arbeit Regular', Helvetica, Arial-Unicode, Arial, Sans-serif"
           fill="#000000"
           id="text4"
           style="fill:#6d0d3d;fill-opacity:1">Created by Aeliz</text><text
           x="0"
           y="122.5"
           font-size="5px"
           font-weight="bold"
           font-family="'Arbeit Regular', Helvetica, Arial-Unicode, Arial, Sans-serif"
           fill="#000000"
           id="text5"
           style="fill:#6d0d3d;fill-opacity:1">from Noun Project</text></g><circle
         style="fill:none;fill-opacity:1;stroke:#6d0d3d;stroke-width:3.18982;stroke-dasharray:none;stroke-opacity:1"
         id="path9"
         cx="216.46851"
         cy="131.42796"
         r="58.40509" /><rect
         style="fill:none;fill-opacity:1;stroke:none;stroke-width:1.8682;stroke-dasharray:none;stroke-opacity:1"
         id="rect9"
         width="128.13179"
         height="128.13181"
         x="152.0788"
         y="67.737717" /></g></g></svg>
