<?xml version="1.0" encoding="UTF-8" standalone="no"?>
<!-- Created with Inkscape (http://www.inkscape.org/) -->

<svg
   width="1920"
   height="1080"
   viewBox="0 0 1920 1080"
   version="1.1"
   id="svg1"
   xml:space="preserve"
   xmlns="http://www.w3.org/2000/svg"
   xmlns:svg="http://www.w3.org/2000/svg"><defs
     id="defs1"><style
       id="style1">.cls-1{fill:#7030b0;}</style><style
       type="text/css"
       id="style1-6">
   
    .fil0 {fill:black;fill-rule:nonzero}
   
  </style><clipPath
       clipPathUnits="userSpaceOnUse"
       id="clipPath14"><rect
         style="fill:none;fill-opacity:1;stroke:#6d0d3d;stroke-width:1.56882;stroke-dasharray:none;stroke-opacity:1"
         id="rect14"
         width="104.24709"
         height="111.05744"
         x="-26.02636"
         y="-39.241646" /></clipPath><style
       id="style1-7">.cls-1{fill:#7030b0;}</style><style
       type="text/css"
       id="style1-6-1">
   
    .fil0 {fill:black;fill-rule:nonzero}
   
  </style></defs><g
     id="layer1"><g
       id="g20"><g
         id="g9"
         transform="matrix(1.1336511,0,0,1.0428177,667.28821,88.083385)"
         clip-path="url(#clipPath14)"
         style="fill:#6d0d3d;fill-opacity:1"><path
           d="m 14.75,9.63 c -3.43,0 -6.22,2.79 -6.22,6.22 0,0.27 0.02,0.53 0.05,0.79 -2.77,0.29 -4.94,2.64 -4.94,5.49 0,3.05 2.48,5.52 5.52,5.52 h 19.55 c 3.82,0 6.92,-3.1 6.92,-6.92 0,-2.85 -1.74,-5.36 -4.29,-6.4 0.07,-0.42 0.1,-0.85 0.1,-1.28 0,-4.59 -3.73,-8.32 -8.32,-8.32 -3.32,0 -6.28,1.98 -7.59,4.94 C 15.28,9.65 15.02,9.63 14.75,9.63 Z m 2.26,2.81 c 0.33,-0.17 0.57,-0.48 0.67,-0.84 0.66,-2.47 2.9,-4.19 5.45,-4.19 3.12,0 5.65,2.53 5.65,5.65 0,0.6 -0.1,1.2 -0.29,1.78 -0.12,0.37 -0.08,0.76 0.12,1.1 0.2,0.33 0.52,0.56 0.9,0.63 2,0.38 3.46,2.13 3.46,4.18 0,2.35 -1.91,4.25 -4.25,4.25 H 9.17 c -1.58,0 -2.86,-1.28 -2.86,-2.86 0,-1.58 1.28,-2.86 2.86,-2.86 h 1.17 c 0.46,0 0.88,-0.23 1.13,-0.62 0.24,-0.39 0.27,-0.87 0.08,-1.29 -0.23,-0.48 -0.35,-1 -0.35,-1.52 0,-1.96 1.6,-3.56 3.56,-3.56 0.4,0 0.8,0.07 1.19,0.21 0.35,0.14 0.74,0.11 1.06,-0.06 z"
           id="path1-4"
           style="fill:#6d0d3d;fill-opacity:1" /><path
           d="m 16.86,51.67 h 8.23 l -4.11,4.11 1.89,1.89 6,-6 h 2.78 c 2.21,0 4,-1.79 4,-4 0,-2.21 -1.79,-4 -4,-4 H 10.31 c -2.21,0 -4,1.79 -4,4 0,2.21 1.79,4 4,4 h 2.78 l 12.94,12.94 c 0.25,0.25 0.58,0.39 0.93,0.39 1.17,0 1.76,-1.41 0.94,-2.24 -3.07,-3.1 -8.53,-8.57 -11.04,-11.09 z m -7.88,-4 c 0,-0.74 0.6,-1.33 1.33,-1.33 h 21.33 c 0.74,0 1.33,0.6 1.33,1.33 0,0.74 -0.6,1.33 -1.33,1.33 H 10.31 C 9.57,49 8.98,48.4 8.98,47.67 Z"
           id="path2-4"
           style="fill:#6d0d3d;fill-opacity:1" /><path
           d="m 14.04,62.75 c -0.82,0.83 -0.23,2.25 0.94,2.25 0.35,0 0.69,-0.14 0.93,-0.39 l 5.07,-5.05 -1.89,-1.89 c 0,-0.01 -2.91,2.92 -5.05,5.08 z"
           id="path3-90"
           style="fill:#6d0d3d;fill-opacity:1" /><path
           d="M 8.98,54.33 H 3.64 v -12 C 3.64,41.59 3.04,41 2.31,41 1.58,41 0.98,41.6 0.98,42.33 v 21.33 c 0,0.74 0.6,1.33 1.33,1.33 0.73,0 1.33,-0.6 1.33,-1.33 V 57 h 5.33 v 6.67 c 0,0.74 0.6,1.33 1.33,1.33 0.74,0 1.33,-0.6 1.33,-1.33 V 57 c 0.01,-1.47 -1.18,-2.67 -2.65,-2.67 z"
           id="path4-4"
           style="fill:#6d0d3d;fill-opacity:1" /><path
           d="m 39.64,41 c -0.74,0 -1.33,0.6 -1.33,1.33 v 12 h -5.33 c -1.47,0 -2.67,1.2 -2.67,2.67 v 6.67 c 0,0.74 0.6,1.33 1.33,1.33 0.73,0 1.33,-0.6 1.33,-1.33 V 57 h 5.33 v 6.66 c 0,0.74 0.6,1.33 1.33,1.33 0.74,0 1.33,-0.6 1.33,-1.33 V 42.33 C 40.98,41.6 40.38,41 39.64,41 Z"
           id="path5-1"
           style="fill:#6d0d3d;fill-opacity:1" /><path
           d="M 65.02,35.62 C 65.02,30.11 60.5,9 52.98,9 45.46,9 40.93,30.11 40.93,35.62 c 0,6.19 4.7,11.3 10.71,11.97 v 14.74 h -4 c -0.74,0 -1.33,0.6 -1.33,1.33 0,0.73 0.6,1.34 1.33,1.34 h 10.67 c 0.74,0 1.33,-0.6 1.33,-1.33 0,-0.73 -0.6,-1.33 -1.33,-1.33 h -4 V 47.59 c 6.02,-0.67 10.71,-5.78 10.71,-11.97 z m -21.42,0 c 0,-6.77 5.11,-23.95 9.38,-23.95 4.27,0 9.38,17.19 9.38,23.95 0,4.72 -3.51,8.62 -8.05,9.28 v -2.01 l 4.94,-4.94 c 0.52,-0.52 0.52,-1.36 0,-1.89 -0.52,-0.52 -1.36,-0.52 -1.89,0 L 54.3,39.12 V 37 c 0,-0.74 -0.6,-1.33 -1.33,-1.33 -0.73,0 -1.33,0.6 -1.33,1.33 v 2.11 l -3.06,-3.06 c -0.52,-0.52 -1.36,-0.52 -1.89,0 -0.52,0.52 -0.52,1.36 0,1.89 l 4.94,4.94 v 2.01 C 47.1,44.24 43.6,40.34 43.6,35.62 Z"
           id="path6-8"
           style="fill:#6d0d3d;fill-opacity:1" /><path
           d="m 4.31,16.91 c 0.31,0 0.63,-0.11 0.88,-0.33 C 5.74,16.09 5.8,15.25 5.31,14.7 4.24,13.47 3.64,11.93 3.64,10.33 c 0,-3.68 2.99,-6.67 6.67,-6.67 1.79,0 3.47,0.71 4.74,2.01 0.52,0.53 1.36,0.54 1.89,0.02 C 17.47,5.17 17.48,4.33 16.96,3.8 15.18,2 12.82,1 10.31,1 5.16,1 0.98,5.19 0.98,10.33 c 0,2.24 0.83,4.41 2.33,6.12 0.26,0.31 0.63,0.46 1,0.46 z"
           id="path7-0"
           style="fill:#6d0d3d;fill-opacity:1" /><text
           x="0"
           y="81"
           fill="#000000"
           font-size="5px"
           font-weight="bold"
           font-family="'Helvetica Neue', Helvetica, Arial-Unicode, Arial, Sans-serif"
           id="text7"
           style="fill:#6d0d3d;fill-opacity:1">Created by Design Circle</text><text
           x="0"
           y="86"
           fill="#000000"
           font-size="5px"
           font-weight="bold"
           font-family="'Helvetica Neue', Helvetica, Arial-Unicode, Arial, Sans-serif"
           id="text8-0"
           style="fill:#6d0d3d;fill-opacity:1">from the Noun Project</text></g><circle
         style="fill:none;fill-opacity:1;stroke:#6d0d3d;stroke-width:3.18982;stroke-dasharray:none;stroke-opacity:1"
         id="path9-4-6"
         cx="702.74249"
         cy="125.57998"
         r="58.40509" /><rect
         style="fill:none;fill-opacity:1;stroke:none;stroke-width:1.8682;stroke-dasharray:none;stroke-opacity:1"
         id="rect9-9"
         width="128.13179"
         height="128.13181"
         x="638.75189"
         y="62.674046" /></g></g></svg>
