<?xml version="1.0" encoding="UTF-8" standalone="no"?>
<!-- Created with Inkscape (http://www.inkscape.org/) -->

<svg
   width="1920"
   height="1080"
   viewBox="0 0 1920 1080"
   version="1.1"
   id="svg1"
   xml:space="preserve"
   xmlns="http://www.w3.org/2000/svg"
   xmlns:svg="http://www.w3.org/2000/svg"><defs
     id="defs1"><style
       id="style1">.cls-1{fill:#7030b0;}</style><style
       type="text/css"
       id="style1-6">
   
    .fil0 {fill:black;fill-rule:nonzero}
   
  </style><clipPath
       clipPathUnits="userSpaceOnUse"
       id="clipPath12"><rect
         style="fill:none;fill-opacity:1;stroke:#6d0d3d;stroke-width:1.8682;stroke-dasharray:none;stroke-opacity:1"
         id="rect12"
         width="128.13179"
         height="128.13181"
         x="-17.802681"
         y="-29.484087" /></clipPath><style
       id="style1-7">.cls-1{fill:#7030b0;}</style><style
       type="text/css"
       id="style1-6-1">
   
    .fil0 {fill:black;fill-rule:nonzero}
   
  </style></defs><g
     id="layer1"><g
       id="g18"><g
         id="g6"
         transform="matrix(0.94940134,0,0,0.90481339,343.67731,86.766213)"
         clip-path="url(#clipPath12)"
         style="fill:#6d0d3d;fill-opacity:1"><g
           fill-rule="evenodd"
           id="g8"
           style="fill:#6d0d3d;fill-opacity:1"><path
             d="M 11.254,47.691 C 10.84775,46.99959 10.43759,46.3629 10.0899,45.6949 8.3126,42.2926 7.5274,38.6441 7.5001,34.8199 7.480569,32.4254 7.80479,30.0777 8.5587,27.8004 c 0.71875,-2.1641 1.7773,-4.1289 3.4453,-5.7266 0.09766,-0.09375 0.17578,-0.20703 0.26562,-0.30469 0.35156,-0.38672 0.78516,-0.52734 1.2969,-0.40625 2.6602,0.63672 5.1406,1.6875 7.4062,3.2305 1.0547,0.71875 2.0195,1.5352 2.8984,2.4609 0.04687,0.05078 0.08984,0.10937 0.17969,0.22656 0.0625,-0.53125 0.10156,-0.97656 0.16406,-1.418 0.45703,-3.2188 1.4141,-6.2617 3.1289,-9.043 0.85547,-1.3906 1.9023,-2.6133 3.2305,-3.5938 1.0234,-0.75781 1.6406,-0.75391 2.7656,-0.05469 1.5078,0.9375 2.7461,2.1797 3.8906,3.5195 1.1211,1.3125 2.1055,2.7188 2.8594,4.2773 0.14062,0.28906 0.26172,0.58984 0.39453,0.89453 0.02344,-0.0039 0.05469,0 0.07031,-0.01563 0.58984,-0.52734 1.1992,-1.0352 1.7578,-1.5977 0.55859,-0.55859 1.3516,-0.60938 1.918,-0.03516 0.96484,0.97266 1.9141,1.957 2.8711,2.9375 0.16797,0.17188 0.33203,0.35156 0.50391,0.53906 0.63672,-0.44922 1.2383,-0.87109 1.8398,-1.2969 0.65234,-0.46094 1.3047,-0.92969 1.9609,-1.3906 0.65234,-0.45703 1.5273,-0.23828 1.8867,0.48047 0.32031,0.64453 0.62109,1.3008 0.93359,1.9492 0.03125,0.0625 0.06641,0.12109 0.11719,0.21484 0.49219,-0.84375 0.96875,-1.6562 1.4453,-2.4727 0.36719,-0.62891 0.73438,-1.2578 1.1094,-1.8867 0.45312,-0.76172 1.2539,-0.89453 1.9883,-0.41016 0.71484,0.46875 1.4766,0.85938 2.2266,1.2734 1.4648,0.8125 2.9336,1.6172 4.3945,2.4336 0.17188,0.09766 0.28516,0.07031 0.4375,-0.03125 1.3047,-0.88672 2.6094,-1.7695 3.9141,-2.6484 0.14844,-0.10156 0.30469,-0.19141 0.46484,-0.27344 0.67188,-0.34375 1.4297,-0.10547 1.7656,0.57813 0.65234,1.3164 1.293,2.6367 1.9375,3.9531 0.29297,0.59766 0.58203,1.1914 0.88281,1.8086 0.48438,-0.41016 1.0117,-0.35547 1.5703,-0.15234 1.5742,0.57422 2.7969,1.5352 3.4961,3.0977 0.07813,0.17969 0.14063,0.36719 0.21484,0.56641 0.44141,-0.22656 0.86719,-0.47656 1.3164,-0.67188 2.5312,-1.1016 5.1211,-1.3086 7.7695,-0.44141 1.0703,0.35156 1.9922,0.95312 2.8008,1.7344 0.48047,0.46484 0.55078,1.0703 0.21875,1.6523 -1.0938,1.9023 -2.7695,3.0938 -4.7695,3.8711 -1.7422,0.67578 -3.5469,0.91797 -5.4102,0.64062 -0.05078,-0.0078 -0.10547,0 -0.17969,0 0.55469,1.9531 0.49609,3.9141 0.15234,5.8711 -0.34766,1.957 -0.97656,3.8125 -2.0781,5.5625 0.31641,0 0.58203,0.0039 0.84766,0 0.83203,-0.01172 1.375,0.47266 1.3945,1.3086 0.02734,1.2695 0.02344,2.5352 0.02734,3.8047 0.0039,1.8555 0,3.707 0,5.5625 0,1.9883 -0.0039,3.9766 0.0039,5.9648 0.0039,1.7109 0.03516,3.4219 0.02344,5.1289 -0.01172,1.6367 -0.20703,3.2539 -0.59375,4.8438 -0.69531,2.8438 -1.8711,5.4609 -3.6914,7.7695 -1.6133,2.0469 -3.5703,3.6523 -6.0391,4.5703 -0.97656,0.36328 -1.9883,0.60156 -3.0312,0.61328 -2.7109,0.03906 -5.418,0.06641 -8.1289,0.07422 -4.8828,0.01172 -9.7617,0.0039 -14.645,0.0039 -5.9453,0 -11.891,0 -17.836,-0.0039 -1.7812,0 -3.5664,0.01563 -5.3516,-0.0039 -2.8242,-0.02734 -5.3281,-0.94531 -7.5117,-2.7344 -2.4453,-2 -4.1211,-4.5469 -5.2734,-7.4609 -0.84375,-2.1367 -1.3477,-4.3555 -1.4414,-6.6484 -0.058594,-1.4219 -0.019531,-2.8438 -0.023437,-4.2656 -0.00391,-1.8633 0,-3.7266 0,-5.5898 v -5.9922 c 0,-1.6992 -0.00391,-3.4023 0,-5.1016 0,-0.23438 0.00781,-0.46875 0.035156,-0.69922 0.074218,-0.6875 0.61328,-1.1523 1.3047,-1.1523 0.37891,0 0.76562,-0.0039 1.1719,-0.0039 z m 34.281,2.5586 h -1.8906 -31.996 c -0.35156,0 -0.35156,0 -0.35156,0.34766 0,5.8477 0.0078,11.691 -0.0039,17.539 -0.0039,1.7773 0.03516,3.5469 0.44141,5.2891 0.73438,3.1602 2.0898,5.9922 4.3906,8.3203 1.9648,1.9883 4.3242,3.0586 7.1484,3.0352 2.1719,-0.01563 4.3398,-0.0039 6.5117,-0.0039 5.25,0.0039 10.504,0.0078 15.754,0.0078 2.8359,0 5.6758,0.0039 8.5117,-0.0078 4.8633,-0.01563 9.7266,-0.03516 14.586,-0.0625 1.0586,-0.0078 2.0664,-0.26172 3.0312,-0.69531 1.7227,-0.77734 3.125,-1.9609 4.2734,-3.4414 2.5156,-3.2344 3.7539,-6.9258 3.7695,-11.012 0.02734,-6.332 0.01172,-12.664 0.01953,-18.996 0,-0.23047 -0.03125,-0.32812 -0.30078,-0.32812 -11.301,0.01172 -22.598,0.0078 -33.895,0.0078 z m 3.7148,-2.5781 c 0.10547,0.02344 0.125,0.02734 0.14062,0.02734 3.168,0 6.3359,0 9.5039,0.0078 0.19141,0 0.26562,-0.07422 0.30859,-0.25391 0.27734,-1.125 0.71484,-2.1914 1.2461,-3.2148 2.1367,-4.0859 5.1055,-7.457 8.8203,-10.176 0.28516,-0.20703 0.33984,-0.33984 0.23047,-0.67969 -0.04687,-0.14453 -0.11719,-0.28516 -0.20703,-0.40625 -0.42578,-0.57422 -0.94531,-0.74609 -1.6523,-0.57031 -0.67188,0.16797 -1.3203,-0.16797 -1.5469,-0.80469 -0.21875,-0.61328 0.05859,-1.3008 0.64844,-1.5703 0.46484,-0.21484 0.95703,-0.31641 1.4727,-0.28125 1.4062,0.09375 2.4922,0.74609 3.2695,1.918 0.16016,0.24219 0.28906,0.51172 0.43359,0.76562 0.57031,-0.17969 0.57031,-0.17969 0.5625,-0.73438 -0.02344,-1.4062 -0.04297,-2.8086 -0.06641,-4.2148 -0.0078,-0.42969 0.0078,-0.85156 -0.21094,-1.2578 -0.41016,-0.76953 -0.77344,-1.5664 -1.1602,-2.3477 -0.20312,-0.41406 -0.41406,-0.82812 -0.62891,-1.2578 -0.72656,0.49219 -1.4102,0.97656 -2.1172,1.4219 -0.75781,0.48047 -1.4258,1.1055 -2.2812,1.4297 -0.07422,0.02734 -0.13281,0.12109 -0.17969,0.19141 -0.31641,0.46094 -0.625,0.92578 -0.94922,1.3789 -0.09766,0.14062 -0.0625,0.22656 0.0078,0.35938 0.21484,0.41406 0.45312,0.82422 0.60156,1.2617 0.63672,1.9102 0.39453,3.7852 -0.30469,5.625 -0.16406,0.43359 -0.51172,0.69531 -0.97266,0.76953 -1.0039,0.15625 -1.7461,-0.79297 -1.3828,-1.7617 0.39062,-1.0469 0.57422,-2.1172 0.39453,-3.2305 -0.21484,-1.3086 -1.0781,-2.2734 -2.25,-2.5117 -0.94922,-0.19141 -1.8672,-0.04297 -2.75,0.31641 -1.7461,0.70703 -3.0625,1.9297 -4.082,3.4883 -0.54688,0.83203 -1.4609,0.94141 -2.1445,0.21875 -0.48828,-0.51953 -1.0703,-0.66016 -1.7461,-0.54297 -0.68359,0.12109 -1.2773,0.44141 -1.8008,0.88281 -1.7695,1.4961 -2.6992,3.418 -2.8711,5.7266 -0.01953,0.27344 0.07031,0.44922 0.26172,0.62891 1.7344,1.6289 3.4609,3.2656 5.1875,4.8984 0.58594,0.55078 0.71875,1.3633 0.27344,2.0352 -0.38281,0.57422 -0.8125,1.1211 -1.2461,1.6602 -0.22656,0.27344 -0.51172,0.50781 -0.8125,0.80469 z m -24.113,-8.2344 c -0.0078,-0.07031 -0.0078,-0.14062 -0.01953,-0.21094 -0.26172,-1.418 -0.29297,-2.8438 -0.11719,-4.2734 0.01563,-0.13281 -0.05469,-0.28125 -0.10547,-0.41406 -0.07031,-0.18359 -0.19531,-0.34766 -0.24609,-0.53516 -0.17578,-0.62109 -0.27734,-1.2695 -0.49609,-1.875 -0.58594,-1.6094 -1.6289,-2.918 -2.8828,-4.0547 -2.1367,-1.9336 -4.6406,-3.2031 -7.3984,-3.9844 -0.10156,-0.02734 -0.26953,0.02344 -0.34375,0.10156 -0.72266,0.71875 -1.2773,1.5586 -1.7305,2.4648 -1.1523,2.3047 -1.6367,4.7773 -1.7227,7.332 -0.09375,2.7695 0.30078,5.4766 1.2266,8.0977 0.70703,1.9961 1.6875,3.8359 3.1289,5.4102 0.13281,0.14453 0.26172,0.21094 0.46484,0.21094 1.4492,-0.0078 2.8984,-0.0039 4.3477,-0.0039 h 1.625 c -0.17969,-0.48828 -0.37109,-0.91797 -0.49219,-1.3633 -0.10547,-0.38672 -0.33984,-0.5625 -0.69141,-0.69922 -1.3086,-0.51172 -2.6055,-1.0469 -3.9023,-1.5781 -0.67188,-0.27734 -0.97656,-1.0195 -0.70312,-1.6797 0.26953,-0.65625 1.0195,-0.95312 1.6875,-0.67969 0.49219,0.20312 0.98047,0.40625 1.4727,0.60547 0.22656,0.09375 0.45312,0.17578 0.73438,0.28516 -0.45703,-1.2305 -0.88281,-2.3945 -1.3242,-3.5547 -0.05078,-0.13672 -0.17578,-0.27344 -0.30469,-0.34766 -0.97656,-0.57812 -1.9648,-1.1367 -2.9453,-1.707 -0.6875,-0.39844 -0.91797,-1.1562 -0.54688,-1.8008 0.35938,-0.625 1.1328,-0.80469 1.8164,-0.42188 0.14844,0.08594 0.30078,0.16797 0.50781,0.28516 -0.04687,-0.12891 -0.07031,-0.1875 -0.08984,-0.24609 -0.375,-1.0117 -0.75391,-2.0234 -1.1211,-3.0391 -0.25781,-0.71875 0.07031,-1.4375 0.74609,-1.6797 0.6875,-0.24609 1.3867,0.09375 1.6523,0.80469 0.24609,0.65625 0.48828,1.3164 0.73438,1.9727 0.12109,0.32031 0.24219,0.64062 0.39453,1.0352 0.06641,-0.23047 0.11328,-0.375 0.15234,-0.51953 0.08594,-0.30078 0.16797,-0.60547 0.26172,-0.90625 0.21484,-0.6875 0.90234,-1.0664 1.5742,-0.87109 0.67969,0.19531 1.0703,0.875 0.88672,1.5703 -0.15234,0.56641 -0.32422,1.125 -0.48828,1.6875 -0.25781,0.89062 -0.49219,1.7891 -0.78125,2.668 -0.09766,0.29687 -0.08594,0.53516 0.02344,0.81641 0.42188,1.1094 0.82422,2.2266 1.2383,3.3398 0.09375,0.25391 0.19922,0.50391 0.31641,0.80469 0.03906,-0.08984 0.05469,-0.12109 0.06641,-0.15625 0.33594,-0.89453 0.66797,-1.7852 1.0039,-2.6797 0.19922,-0.53125 0.65234,-0.85156 1.1914,-0.85547 0.51172,-0.01563 0.875,0.24609 1.1992,0.64453 z m 41.504,8.2539 c 1.1055,0 2.1406,-0.01563 3.1758,0.01172 0.34766,0.0078 0.58984,-0.10156 0.83594,-0.32812 1.4102,-1.3008 2.6875,-2.7148 3.8086,-4.2656 1.1953,-1.6562 2.2344,-3.4023 2.8477,-5.3672 0.27344,-0.88281 0.46484,-1.7773 0.30859,-2.7109 -0.11719,-0.6875 -0.45313,-1.0547 -1.1445,-1.1289 -0.38672,-0.04297 -0.79688,-0.01953 -1.1797,0.05469 -1.2305,0.22656 -2.332,0.78516 -3.3906,1.4336 -2.2852,1.4023 -4.2344,3.1992 -5.9648,5.2383 -1.5938,1.8789 -2.9492,3.9062 -3.8555,6.2148 -0.10547,0.26953 -0.19141,0.55078 -0.30078,0.85938 0.47656,0 0.89062,0.0078 1.3008,-0.0078 0.09375,-0.0039 0.20703,-0.05859 0.26953,-0.12891 0.29688,-0.32422 0.57813,-0.66406 0.86719,-0.99609 2.4883,-2.8477 4.9805,-5.6953 7.4727,-8.5391 0.51562,-0.58984 1.2891,-0.66016 1.8516,-0.17969 0.55469,0.47656 0.58984,1.2734 0.08203,1.8555 -1.8789,2.1484 -3.7617,4.2969 -5.6406,6.4453 -0.42969,0.49609 -0.86719,0.99609 -1.3438,1.5391 z M 35.0278,26.722 c 0.11719,-0.09766 0.18359,-0.15234 0.25,-0.21094 0.94141,-0.82812 1.875,-1.6602 2.8242,-2.4766 0.19531,-0.16797 0.26172,-0.34375 0.19141,-0.56641 -0.13281,-0.41016 -0.25,-0.82812 -0.42969,-1.2188 -0.69922,-1.5273 -1.6797,-2.8711 -2.7773,-4.1328 -0.84766,-0.97266 -1.7656,-1.8711 -2.832,-2.6133 -0.17578,-0.12109 -0.30859,-0.14844 -0.46875,0.01172 -0.28516,0.27734 -0.59766,0.52344 -0.86328,0.8125 -1.5078,1.6211 -2.457,3.5625 -3.168,5.6328 -0.73828,2.1523 -1.1328,4.3711 -1.1953,6.6484 -0.01563,0.46094 -0.0039,0.92188 -0.0039,1.3828 0.02734,0.0039 0.05469,0.0078 0.08594,0.01562 0.07031,-0.10937 0.13672,-0.22266 0.21094,-0.33203 0.29688,-0.44922 0.58203,-0.91016 0.89453,-1.3477 0.74219,-1.0273 1.6406,-1.9102 2.5781,-2.7578 0.60547,-0.55078 1.0391,-0.64453 1.7812,-0.28906 0.01172,0.0039 0.02734,-0.01172 0.05859,-0.01953 -0.08203,-0.45703 -0.16406,-0.91406 -0.24609,-1.375 -0.20312,-1.1328 -0.41016,-2.2656 -0.61328,-3.4023 -0.09766,-0.54297 0.03906,-1.0039 0.49219,-1.3398 0.75391,-0.55859 1.8164,-0.14844 2,0.78516 0.24609,1.2617 0.46484,2.5312 0.69531,3.7969 0.17187,0.97266 0.34766,1.957 0.53516,2.9961 z m 8.1953,9.0586 c 0.22266,-0.63672 0.43359,-1.2383 0.63672,-1.8398 0.01563,-0.05078 -0.0078,-0.12109 -0.02734,-0.17578 -0.65625,-1.5195 -1.3164,-3.0391 -1.9727,-4.5586 -0.23438,-0.54297 -0.18359,-1.0664 0.25,-1.4688 0.46484,-0.43359 0.97656,-0.81641 1.4883,-1.1953 0.61719,-0.46094 1.2578,-0.89844 1.9336,-1.375 -0.79688,-0.73828 -1.5703,-1.4609 -2.3594,-2.1914 -2.2695,2 -4.6211,4.0703 -6.9883,6.1523 2.3516,2.2227 4.6875,4.4297 7.0391,6.6523 z m 2.293,-4.5625 c 0.07813,-0.08203 0.12891,-0.13281 0.17578,-0.18359 0.91016,-1.0273 1.9688,-1.8438 3.2773,-2.2969 1.2109,-0.41797 2.418,-0.43359 3.5977,0.12109 0.13281,0.0625 0.20312,0.05469 0.29297,-0.05859 0.17578,-0.21484 0.35547,-0.42969 0.55469,-0.625 0.12109,-0.12109 0.13672,-0.21484 0.0625,-0.37109 -0.44531,-0.91406 -0.875,-1.8359 -1.3125,-2.7539 -0.16797,-0.35156 -0.33594,-0.70703 -0.51172,-1.0664 -0.0625,0.03516 -0.09375,0.05078 -0.12109,0.07031 -2.2695,1.6055 -4.5391,3.2148 -6.8125,4.8164 -0.14453,0.10156 -0.15234,0.1875 -0.08203,0.33594 0.10547,0.20703 0.18359,0.42969 0.27734,0.64453 0.19531,0.44531 0.39453,0.89453 0.60156,1.3672 z m -20.246,8.7617 c -0.06641,0.25 -0.10156,0.44531 -0.16797,0.62891 -0.48437,1.3164 -0.97656,2.6289 -1.4688,3.9453 -0.17187,0.46484 -0.35156,0.92578 -0.51172,1.3945 -0.18359,0.53125 0.25391,0.92188 0.33203,1.3945 0.0039,0.02734 0.01953,0.05078 0.02734,0.07422 0.04687,0.22266 0.18359,0.28516 0.40625,0.28516 1.4844,-0.0078 2.9688,-0.0039 4.4531,-0.0039 h 1.3945 c -2.1719,-2.207 -3.7148,-4.7031 -4.4648,-7.7188 z m 5.6758,-3.1719 c 2.4766,-0.67969 4.9453,-1.3594 7.4688,-2.0508 -1.6602,-1.5664 -3.2656,-3.0859 -4.8711,-4.6055 -1.9648,1.6875 -2.8633,4.5859 -2.5977,6.6562 z m 6.0938,10.891 c -4.1289,-1.3438 -6.9883,-4 -8.2148,-8.1836 -1.2344,-4.2148 -0.23047,-7.9609 2.8203,-11.16 -0.09375,-0.08594 -0.1875,-0.17188 -0.28125,-0.25781 -0.05078,0.03906 -0.08594,0.06641 -0.11719,0.09766 -0.76172,0.74609 -1.4492,1.5586 -2.0078,2.4688 -2.0312,3.3125 -2.3516,6.7891 -0.92969,10.398 1.0664,2.7109 2.9141,4.8125 5.2422,6.5234 0.07422,0.05469 0.17578,0.10937 0.26562,0.10937 1.0742,0.0039 2.1484,0.0039 3.2227,0.0039 z m 52.508,-16.34 c -2.7305,-1.8281 -7.5781,-0.82422 -9.2148,1.4648 0.51172,0.4375 1.1094,0.70703 1.7617,0.82812 2.5898,0.48047 4.8828,-0.17578 6.9023,-1.8359 0.17969,-0.14844 0.35938,-0.29688 0.55078,-0.45703 z m -58.113,7.9688 c 0.59375,1.625 1.5391,2.957 2.8594,4.0625 1.4961,-2.0234 2.9727,-4.0195 4.4492,-6.0195 -0.01172,-0.01563 -0.02344,-0.02734 -0.03516,-0.04297 -2.4102,0.66406 -4.8203,1.3242 -7.2734,2 z m 48.32,-0.67188 c -1.2266,3.4336 -3.2852,6.332 -5.7578,9.0234 0.10547,0.01172 0.15625,0.01953 0.20703,0.01953 0.61328,0 1.2266,-0.02344 1.8359,0 0.32422,0.01563 0.60156,-0.07813 0.81641,-0.28125 0.32422,-0.30859 0.66406,-0.61719 0.90625,-0.98828 1.5352,-2.3633 2.0664,-4.9883 1.9922,-7.7734 z m -23.883,-12.555 c 2.2539,-1.1719 4.5234,-1.6797 6.9648,-0.60156 0.23828,-0.35156 0.47656,-0.70703 0.72656,-1.0742 -1.7031,-0.9375 -3.3789,-1.8594 -5.0703,-2.793 -0.88672,1.5117 -1.7539,2.9883 -2.6211,4.4688 z m -13.289,12.594 c -0.02344,0.01172 -0.04687,0.01953 -0.07031,0.03125 0.19531,2.0391 0.39062,4.0781 0.59375,6.1602 1.3711,-0.55078 2.4609,-1.3906 3.3594,-2.5195 -1.3086,-1.2383 -2.5977,-2.457 -3.8828,-3.6719 z m -1.9922,6.7695 c -0.17969,-1.8555 -0.35156,-3.668 -0.53516,-5.5625 -1.2227,1.6523 -2.3906,3.2305 -3.5703,4.832 1.3281,0.57031 2.6641,0.8125 4.1055,0.73047 z m 37.055,-13.914 c 0.03125,-0.08594 0.0625,-0.15234 0.07813,-0.21875 0.19141,-0.77734 -0.0039,-1.457 -0.51172,-2.0586 -0.57813,-0.69141 -1.3828,-0.98828 -2.1836,-1.2422 v 3.3594 c 0.91016,-0.11719 1.7578,-0.12891 2.6172,0.16016 z m -34.684,16.117 c 0.76562,0.04687 1.5078,0.01172 2.2109,-0.3125 0.93359,-0.42969 1.7656,-1.0039 2.5078,-1.7109 0.36719,-0.35156 0.70312,-0.73438 1.0664,-1.1211 -0.16406,-0.15234 -0.28516,-0.26563 -0.42188,-0.38672 -1.4375,1.7344 -3.2305,2.8867 -5.3633,3.5312 z"
             id="path1-3"
             style="fill:#6d0d3d;fill-opacity:1" /><path
             d="m 16.613,69.348 c 0.0078,1.4961 0.26953,2.9961 0.82812,4.4414 0.80469,2.0859 2.0039,3.8867 3.8438,5.2031 1.2461,0.89453 2.6133,1.3828 4.1836,1.168 0.73438,-0.10156 1.3438,0.40234 1.4336,1.1172 0.08984,0.70312 -0.40234,1.3125 -1.1406,1.418 -1.8945,0.26953 -3.6328,-0.1875 -5.2461,-1.1562 -2.457,-1.4805 -4.1016,-3.6562 -5.2266,-6.2578 -0.81641,-1.8906 -1.2305,-3.8711 -1.2227,-5.9336 0,-0.35156 0.01563,-0.70312 0.05078,-1.0508 0.06641,-0.73047 0.66797,-1.2344 1.3867,-1.1797 0.6875,0.05469 1.1992,0.65625 1.1602,1.3789 -0.01953,0.26562 -0.03516,0.53125 -0.05078,0.85156 z"
             id="path2-2"
             style="fill:#6d0d3d;fill-opacity:1" /><path
             d="m 16.809,63.836 c 0.0039,0.62109 -0.5,1.1367 -1.1211,1.1445 -0.61719,0.0078 -1.1367,-0.50391 -1.1406,-1.125 -0.0039,-0.625 0.49609,-1.1328 1.125,-1.1367 0.62109,-0.0078 1.1328,0.49219 1.1367,1.1172 z"
             id="path3-9"
             style="fill:#6d0d3d;fill-opacity:1" /><path
             d="m 51.605,39.984 c -0.625,-0.0039 -1.1289,-0.51562 -1.125,-1.1406 0.0039,-0.62109 0.51953,-1.1289 1.1445,-1.1211 0.625,0.0078 1.1289,0.51953 1.1211,1.1445 -0.0039,0.62109 -0.51562,1.125 -1.1406,1.1172 z"
             id="path4-7"
             style="fill:#6d0d3d;fill-opacity:1" /><path
             d="m 56.32,43.391 c 0,0.625 -0.50391,1.1328 -1.1289,1.1328 -0.62499,0 -1.1367,-0.50391 -1.1367,-1.1289 0,-0.62109 0.50781,-1.1367 1.1328,-1.1367 0.62109,0 1.1328,0.50781 1.1328,1.1328 z"
             id="path5"
             style="fill:#6d0d3d;fill-opacity:1" /><path
             d="m 61.012,40.801 c -0.62109,-0.0039 -1.1289,-0.52344 -1.1172,-1.1445 0.0078,-0.625 0.52734,-1.1289 1.1484,-1.1172 0.62891,0.01172 1.125,0.52344 1.1172,1.1484 -0.01172,0.61719 -0.52344,1.1172 -1.1484,1.1133 z"
             id="path6"
             style="fill:#6d0d3d;fill-opacity:1" /><path
             d="m 59.426,35.32 c -0.0039,0.62109 -0.51953,1.1328 -1.1406,1.125 -0.62109,-0.0078 -1.1289,-0.52344 -1.1211,-1.1445 0.0039,-0.62891 0.51172,-1.125 1.1406,-1.1211 0.62109,0.0039 1.125,0.51562 1.1211,1.1406 z"
             id="path7"
             style="fill:#6d0d3d;fill-opacity:1" /><path
             d="m 34.27,35.02 c -0.62109,0.0078 -1.1406,-0.5 -1.1445,-1.1172 -0.0078,-0.625 0.49219,-1.1367 1.1211,-1.1445 0.62109,-0.0078 1.1367,0.49609 1.1445,1.1211 0.0078,0.61719 -0.49609,1.1328 -1.1211,1.1406 z"
             id="path8"
             style="fill:#6d0d3d;fill-opacity:1" /></g><text
           x="0"
           y="117.5"
           font-size="5px"
           font-weight="bold"
           font-family="'Arbeit Regular', Helvetica, Arial-Unicode, Arial, Sans-serif"
           fill="#000000"
           id="text8"
           style="fill:#6d0d3d;fill-opacity:1">Created by kukuh amaliawan</text><text
           x="0"
           y="122.5"
           font-size="5px"
           font-weight="bold"
           font-family="'Arbeit Regular', Helvetica, Arial-Unicode, Arial, Sans-serif"
           fill="#000000"
           id="text9"
           style="fill:#6d0d3d;fill-opacity:1">from Noun Project</text></g><circle
         style="fill:none;fill-opacity:1;stroke:#6d0d3d;stroke-width:3.18982;stroke-dasharray:none;stroke-opacity:1"
         id="path9-4-8"
         cx="385.4993"
         cy="133.12903"
         r="58.40509" /><rect
         style="fill:none;fill-opacity:1;stroke:none;stroke-width:1.8682;stroke-dasharray:none;stroke-opacity:1"
         id="rect9-4"
         width="128.13179"
         height="128.13181"
         x="322.10345"
         y="67.634697" /></g></g></svg>
