<?xml version="1.0" encoding="UTF-8" standalone="no"?>
<!-- Created with Inkscape (http://www.inkscape.org/) -->

<svg
   width="1920"
   height="1080"
   viewBox="0 0 1920 1080"
   version="1.1"
   id="svg1"
   xml:space="preserve"
   xmlns="http://www.w3.org/2000/svg"
   xmlns:svg="http://www.w3.org/2000/svg"><defs
     id="defs1"><style
       id="style1">.cls-1{fill:#7030b0;}</style><style
       type="text/css"
       id="style1-6">
   
    .fil0 {fill:black;fill-rule:nonzero}
   
  </style><clipPath
       clipPathUnits="userSpaceOnUse"
       id="clipPath16"><rect
         style="fill:none;fill-opacity:1;stroke:#6d0d3d;stroke-width:0.123346;stroke-dasharray:none;stroke-opacity:1"
         id="rect16"
         width="8.1592674"
         height="8.7712355"
         x="0.45166036"
         y="-0.10707961" /></clipPath><style
       id="style1-7">.cls-1{fill:#7030b0;}</style><style
       type="text/css"
       id="style1-6-1">
   
    .fil0 {fill:black;fill-rule:nonzero}
   
  </style></defs><g
     id="layer1"><g
       id="g21"><g
         style="clip-rule:evenodd;fill:#6d0d3d;fill-opacity:1;fill-rule:evenodd;image-rendering:optimizeQuality;shape-rendering:geometricPrecision;text-rendering:geometricPrecision"
         id="g3"
         transform="matrix(8.7978959,0,0,9.1658428,833.7633,84.401224)"
         clip-path="url(#clipPath16)"><g
           id="g1"
           style="fill:#6d0d3d;fill-opacity:1"><path
             class="fil0"
             d="M 6.5689,5.076 C 6.4328,4.984 6.2923,4.9103 6.1557,4.861 6.0282,4.815 5.9028,4.7895 5.7863,4.7895 5.6699,4.7895 5.5443,4.8151 5.4165,4.8613 5.2789,4.911 5.138,4.9851 5.002,5.0771 4.9439,5.1162 4.865,5.1009 4.8259,5.0428 4.8175,5.0304 4.8117,5.0169 4.8082,5.0032 L 4.6707,4.4619 C 4.6312,4.3036 4.6303,4.184 4.6871,4.0928 4.7494,3.993 4.8611,3.9475 5.0405,3.9475 h 1.5197 c 0.0839,4e-4 0.1448,3e-4 0.1947,0.0108 0.1862,0.0393 0.2021,0.1255 0.1468,0.3874 L 6.7638,4.9971 C 6.7493,5.0655 6.6819,5.1093 6.6135,5.0948 6.5971,5.0913 6.5821,5.0848 6.5689,5.076 Z M 5.7863,5.5004 c 0.2384,0 0.4545,0.0968 0.6107,0.253 0.1562,0.1562 0.2529,0.3722 0.2529,0.6106 0,0.2384 -0.0967,0.4545 -0.2529,0.6107 C 6.2408,7.1309 6.0247,7.2276 5.7863,7.2276 5.5479,7.2276 5.3319,7.1309 5.1757,6.9747 5.0195,6.8185 4.9227,6.6024 4.9227,6.364 4.9227,6.1256 5.0195,5.9096 5.1757,5.7534 5.3319,5.5972 5.5479,5.5004 5.7863,5.5004 Z M 6.2174,5.933 C 6.1071,5.8227 5.9546,5.7544 5.7863,5.7544 5.618,5.7544 5.4656,5.8227 5.3553,5.933 5.245,6.0433 5.1767,6.1957 5.1767,6.364 c 0,0.1683 0.0683,0.3208 0.1786,0.4311 0.1103,0.1103 0.2627,0.1785 0.431,0.1785 0.1683,0 0.3208,-0.0682 0.4311,-0.1785 C 6.3277,6.6848 6.3959,6.5323 6.3959,6.364 6.3959,6.1957 6.3277,6.0433 6.2174,5.933 Z M 5.8457,0.5852 5.8279,0.5955 C 5.7605,0.6374 5.7148,0.7029 5.6953,0.7756 5.675,0.8513 5.6834,0.9346 5.7249,1.0069 l 0.5014,0.8682 0.002,0.0032 C 6.2701,1.9456 6.3357,1.9912 6.4082,2.0107 6.4838,2.0309 6.5671,2.0226 6.6393,1.9809 L 6.6417,1.9795 C 6.7128,1.9376 6.761,1.8704 6.781,1.7957 6.8032,1.7131 6.7908,1.6391 6.7517,1.5648 L 6.2536,0.7021 C 6.2134,0.6327 6.146,0.5814 6.0681,0.5606 5.9954,0.5412 5.9158,0.548 5.8457,0.5852 Z M 5.4912,0.6033 C 5.538,0.5105 5.611,0.4294 5.707,0.3732 L 5.7105,0.3711 C 5.8436,0.2944 5.9959,0.2788 6.1335,0.3156 6.229,0.3411 6.3178,0.3918 6.3889,0.4647 L 6.5241,0.3869 C 6.627,0.3303 6.7436,0.3194 6.849,0.3476 6.9575,0.3766 7.0553,0.4471 7.1159,0.5519 L 7.3122,0.8925 C 7.3727,0.9973 7.3849,1.1172 7.3559,1.2255 7.3269,1.3338 7.2564,1.4315 7.1515,1.4921 L 7.0243,1.5657 C 7.0518,1.6637 7.0515,1.7659 7.026,1.8611 6.9899,1.996 6.9033,2.1178 6.7751,2.1949 L 6.7562,2.2058 C 6.6613,2.258 6.5573,2.2796 6.456,2.2739 6.5225,2.4022 6.5346,2.5456 6.4998,2.676 6.4637,2.8109 6.3771,2.9327 6.2489,3.0098 L 6.2276,3.0218 C 6.0974,3.0927 5.9501,3.1063 5.8166,3.0706 5.6786,3.0337 5.5544,2.944 5.4777,2.8111 L 5.3251,2.5468 3.4282,3.6421 3.5807,3.9062 C 3.6576,4.0394 3.6731,4.1917 3.6362,4.3293 3.6005,4.4629 3.5147,4.584 3.3879,4.6613 3.3804,4.6668 3.3724,4.6714 3.3641,4.675 3.2338,4.746 3.0865,4.7596 2.953,4.7239 2.8221,4.689 2.7038,4.6067 2.6265,4.4849 2.5792,4.5786 2.505,4.6603 2.4074,4.7166 2.2742,4.7935 2.1219,4.809 1.9843,4.7722 1.8887,4.7467 1.7998,4.6959 1.7287,4.6229 L 1.6015,4.6963 C 1.4967,4.7568 1.3768,4.7691 1.2686,4.7401 1.1604,4.7112 1.0624,4.6404 1.0018,4.5353 L 0.8055,4.1952 C 0.745,4.0904 0.7328,3.9704 0.7617,3.8623 0.7907,3.7539 0.8614,3.6561 0.9665,3.5955 L 1.0937,3.5221 C 1.066,3.4241 1.0663,3.3218 1.0918,3.2266 1.1287,3.0886 1.2183,2.9643 1.3513,2.8875 L 1.3603,2.8827 C 1.4556,2.83 1.5603,2.8081 1.6621,2.8139 1.5952,2.6859 1.583,2.5422 1.6179,2.4117 1.6538,2.278 1.7393,2.157 1.8663,2.0797 1.8738,2.0742 1.8817,2.0696 1.89,2.066 2.0203,1.995 2.1676,1.9814 2.3011,2.0171 2.4359,2.0531 2.5574,2.1395 2.6346,2.2673 L 2.7926,2.5409 4.6895,1.4457 4.5314,1.1718 C 4.4595,1.041 4.4455,0.8927 4.4815,0.7584 4.5176,0.6234 4.6043,0.5016 4.7323,0.4246 L 4.7519,0.4134 C 4.8825,0.3417 5.0305,0.3279 5.1647,0.3638 c 0.1306,0.035 0.249,0.1174 0.3265,0.2395 z m 1.0392,0.072 0.3822,0.6625 0.112,-0.0647 C 7.0688,1.2479 7.0986,1.2063 7.1109,1.1601 7.1233,1.1136 7.1184,1.0625 7.093,1.0185 L 6.8967,0.6789 C 6.8712,0.6348 6.8296,0.6049 6.7836,0.5926 6.7392,0.5807 6.6903,0.5848 6.6475,0.6076 Z M 5.2812,0.7444 C 5.2395,0.6754 5.173,0.6286 5.0993,0.6088 5.0237,0.5886 4.9404,0.5969 4.8682,0.6386 L 4.8646,0.6406 C 4.7942,0.6826 4.7464,0.7495 4.7265,0.8238 4.7063,0.8994 4.7146,0.9827 4.7563,1.0549 5.0388,1.5854 5.3885,2.1742 5.7009,2.6908 5.7429,2.7594 5.8088,2.806 5.882,2.8256 5.9546,2.845 6.0342,2.8382 6.1043,2.801 L 6.1204,2.7915 C 6.1888,2.7495 6.2353,2.6836 6.2548,2.6106 6.2751,2.5348 6.2668,2.4515 6.2253,2.3793 Z M 5.1985,2.3274 4.8162,1.6651 2.9192,2.7603 3.3016,3.4227 Z M 1.5893,4.4114 C 1.4652,4.1899 1.3309,3.9709 1.2043,3.7502 L 1.0925,3.8147 C 1.0488,3.8399 1.019,3.8815 1.0067,3.9277 0.9943,3.974 0.9993,4.0252 1.0247,4.0692 L 1.221,4.4093 C 1.2462,4.453 1.2879,4.4828 1.334,4.4951 1.3804,4.5075 1.4315,4.5025 1.4755,4.4771 Z m 1.244,-0.074 C 2.8751,4.4098 2.943,4.4587 3.0184,4.4789 3.091,4.4984 3.1707,4.4915 3.2408,4.4542 L 3.2591,4.4437 C 3.3262,4.4018 3.3718,4.3363 3.3912,4.2639 3.4115,4.1881 3.4033,4.1046 3.3615,4.0322 L 2.4209,2.4036 C 2.3791,2.3313 2.3113,2.2823 2.2357,2.2621 2.1631,2.2426 2.0834,2.2495 2.0133,2.2868 L 1.995,2.2973 C 1.9279,2.3392 1.8823,2.4046 1.8629,2.4771 1.8426,2.5529 1.851,2.6364 1.8927,2.7088 Z M 1.8988,3.225 1.8948,3.2186 C 1.853,3.1462 1.7851,3.0972 1.7096,3.077 1.6368,3.0575 1.557,3.0644 1.4868,3.1018 L 1.4711,3.111 C 1.4027,3.1531 1.3563,3.219 1.3368,3.292 1.3173,3.3647 1.3243,3.4445 1.3617,3.5148 1.524,3.8003 1.6921,4.1082 1.8644,4.3856 1.9062,4.458 1.9741,4.507 2.0497,4.5272 2.1255,4.5475 2.209,4.5391 2.2814,4.4974 2.3534,4.4559 2.4022,4.3879 2.4225,4.3122 2.4418,4.2399 2.4352,4.1606 2.3984,4.0907 L 2.3966,4.0873 Z m 4.3423,1.3978 c 0.1044,0.0377 0.2094,0.0867 0.3121,0.145 L 6.6537,4.2936 C 6.6692,4.222 6.7285,4.2116 6.7033,4.2063 6.6774,4.2009 6.628,4.201 6.5602,4.201 l -1.5197,5e-4 c -0.0834,0 -0.1272,0.008 -0.138,0.0253 C 4.8873,4.2512 4.894,4.3096 4.9166,4.3999 L 5.0113,4.7723 C 5.1164,4.7121 5.2236,4.6616 5.3301,4.6231 5.4861,4.5667 5.6409,4.5355 5.7863,4.5355 c 0.1447,0 0.2991,0.0311 0.4548,0.0873 z m 0.9908,0.7073 c 0.1426,0.1653 0.263,0.3472 0.3481,0.5356 0.0885,0.1964 0.14,0.401 0.14,0.6034 0,0.4922 -0.1765,0.9373 -0.5357,1.2501 L 7.1768,7.7253 C 6.8557,8.0015 6.3933,8.1702 5.7863,8.1702 5.1749,8.1702 4.7099,7.999 4.3885,7.719 4.0291,7.4064 3.8526,6.9613 3.8526,6.4691 c 0,-0.2024 0.0515,-0.407 0.14,-0.6034 0.0854,-0.189 0.2058,-0.371 0.3481,-0.536 L 4.0894,4.1126 C 4.0828,4.0807 4.0796,4.0502 4.0796,4.0216 4.0796,3.8877 4.1395,3.7667 4.2328,3.6733 4.3202,3.5854 4.4397,3.5215 4.566,3.4956 4.6085,3.4869 4.6509,3.4822 4.6915,3.4822 h 2.1896 c 0.0407,0 0.0829,0.0047 0.1254,0.0134 0.1257,0.0258 0.2449,0.0896 0.3328,0.1773 0.094,0.0942 0.1538,0.2151 0.1538,0.3488 l -7e-4,0.0137 C 7.4915,4.0608 7.4886,4.0868 7.4833,4.1126 Z M 7.3488,5.9699 C 7.2665,5.7875 7.1464,5.6118 7.0043,5.4544 6.9763,5.4254 6.9626,5.3835 6.9712,5.3411 L 7.2353,4.062 7.2394,4.0301 7.2391,4.0217 C 7.2391,3.9593 7.2084,3.9001 7.1607,3.8525 7.1068,3.7986 7.0335,3.7595 6.9559,3.7436 6.9324,3.7388 6.9073,3.7362 6.8811,3.7362 H 4.6915 C 4.6653,3.7362 4.64,3.7388 4.6166,3.7436 4.5395,3.7594 4.4661,3.7987 4.4124,3.8524 4.3644,3.9001 4.3336,3.9594 4.3336,4.0216 c 0,0.0144 0.0013,0.0281 0.0038,0.0404 L 4.5999,5.3332 C 4.6108,5.3735 4.6015,5.4185 4.5713,5.4517 4.4275,5.6102 4.3064,5.7871 4.2238,5.9699 4.1497,6.1343 4.1066,6.3038 4.1066,6.4691 c 0,0.4198 0.1477,0.7969 0.4483,1.0587 0.2762,0.2411 0.6849,0.3884 1.2314,0.3884 0.5426,0 0.9495,-0.1453 1.2256,-0.383 L 7.0177,7.5278 C 7.3183,7.266 7.466,6.8889 7.466,6.4691 7.466,6.3038 7.4229,6.1343 7.3488,5.9699 Z"
             id="path1-9"
             style="fill:#6d0d3d;fill-opacity:1" /></g><text
           x="0"
           y="23.4666"
           fill="#000000"
           font-size="5px"
           font-weight="bold"
           font-family="'Helvetica Neue', Helvetica, Arial-Unicode, Arial, Sans-serif"
           id="text1"
           style="fill:#6d0d3d;fill-opacity:1">Created by Imron Sadewo</text><text
           x="0"
           y="28.4666"
           fill="#000000"
           font-size="5px"
           font-weight="bold"
           font-family="'Helvetica Neue', Helvetica, Arial-Unicode, Arial, Sans-serif"
           id="text2"
           style="fill:#6d0d3d;fill-opacity:1">from the Noun Project</text></g><circle
         style="fill:none;fill-opacity:1;stroke:#6d0d3d;stroke-width:3.18982;stroke-dasharray:none;stroke-opacity:1"
         id="path9-4-6-9"
         cx="873.83319"
         cy="126.54747"
         r="58.40509" /><rect
         style="fill:none;fill-opacity:1;stroke:none;stroke-width:1.8682;stroke-dasharray:none;stroke-opacity:1"
         id="rect9-9-7"
         width="128.13179"
         height="128.13181"
         x="809.59875"
         y="63.212101" /></g></g></svg>
